<?xml version="1.0" standalone="no"?>
<!DOCTYPE svg PUBLIC "-//W3C//DTD SVG 20010904//EN"
 "http://www.w3.org/TR/2001/REC-SVG-20010904/DTD/svg10.dtd">
<svg version="1.0" xmlns="http://www.w3.org/2000/svg"
 width="600.000000pt" height="600.000000pt" viewBox="0 0 600.000000 600.000000"
 preserveAspectRatio="xMidYMid meet">
<metadata>
Created by potrace 1.16, written by Peter Selinger 2001-2019
</metadata>
<g transform="translate(0.000000,600.000000) scale(0.100000,-0.100000)"
fill="#000000" stroke="none">
<path d="M3280 5756 c-25 -6 -55 -17 -68 -24 -12 -7 -26 -11 -31 -8 -12 8
-113 -49 -104 -58 5 -4 -4 -5 -19 -1 -21 5 -30 2 -43 -18 -8 -14 -15 -40 -14
-58 1 -19 -2 -63 -6 -99 l-7 -65 33 64 c43 83 123 165 192 196 66 30 196 49
297 43 69 -4 71 -4 28 5 -27 6 -48 13 -48 17 0 3 -39 5 -87 4 -75 -2 -80 -1
-33 5 l55 8 -50 0 c-27 0 -70 -4 -95 -11z"/>
<path d="M3360 5486 c-21 -45 -44 -101 -49 -124 -6 -23 -16 -61 -22 -84 -23
-88 -15 -184 25 -312 121 -388 180 -813 146 -1036 -6 -36 -15 -148 -20 -250
-9 -175 -13 -222 -25 -330 -10 -91 -14 -215 -6 -185 7 23 9 25 11 10 2 -13 5
-7 10 15 5 22 8 27 9 13 2 -40 19 -34 26 9 12 71 20 71 22 1 1 -36 5 -68 8
-71 4 -4 15 4 25 18 13 17 20 20 20 10 0 -10 10 -5 27 15 25 28 25 28 18 5 -4
-14 -14 -37 -22 -52 -12 -26 -2 -41 12 -18 12 20 33 11 27 -12 -5 -23 -5 -23
16 -4 26 23 38 16 23 -12 -15 -27 -14 -29 9 -35 13 -3 18 -1 13 5 -3 7 -1 8 6
4 6 -4 18 -2 26 4 22 19 18 2 -6 -23 -11 -12 -25 -29 -30 -39 -7 -13 -5 -15
11 -11 11 3 17 9 14 14 -3 5 0 9 5 9 6 0 11 -7 11 -15 0 -21 27 -30 45 -15 8
6 19 9 25 5 7 -5 0 -15 -20 -27 -42 -25 -33 -33 15 -14 43 18 73 20 34 3 -43
-20 -149 -90 -149 -100 0 -4 10 -1 22 7 26 19 52 21 42 4 -5 -7 -3 -8 7 -2 8
5 25 9 39 10 34 2 131 21 154 30 12 5 17 4 13 -3 -4 -6 -27 -16 -52 -23 -25
-7 -45 -16 -45 -21 0 -4 -26 -15 -57 -24 -136 -38 -160 -48 -195 -81 -47 -42
-85 -99 -93 -139 l-6 -30 17 26 c9 14 25 31 36 38 18 11 18 10 4 -11 -25 -40
-29 -99 -9 -138 21 -40 75 -80 109 -80 41 0 132 40 163 72 36 37 41 89 15 139
-13 26 -20 30 -47 27 -25 -2 -32 1 -31 14 1 15 0 16 -22 2 -29 -20 -44 -11
-44 27 0 22 5 29 20 29 11 0 20 -3 20 -7 0 -5 20 -8 44 -8 56 -1 89 -29 111
-94 11 -35 13 -55 5 -81 -13 -47 -13 -49 10 -21 11 13 20 38 20 57 0 18 5 36
12 40 8 5 9 0 5 -15 -5 -21 -3 -23 26 -17 18 4 41 6 52 6 48 -3 132 0 153 5
15 4 21 2 17 -5 -8 -13 35 -13 55 1 12 8 9 9 -10 5 -14 -3 -6 3 18 14 41 19
60 45 25 34 -17 -5 -17 -5 0 9 9 8 17 17 17 21 0 3 -8 6 -17 6 -14 0 -15 2 -4
9 7 5 15 20 16 35 3 23 0 25 -21 20 -34 -9 -30 1 19 47 32 31 43 37 45 25 2
-9 9 -14 15 -11 7 3 2 -2 -10 -11 -32 -23 -29 -34 5 -22 16 6 40 8 54 5 25 -7
31 -16 78 -142 13 -33 35 -87 51 -120 58 -125 101 -265 124 -404 8 -46 16 -85
18 -88 3 -2 58 5 124 17 178 32 336 50 353 39 10 -6 -1 -9 -35 -9 -49 0 -229
-26 -370 -53 -51 -10 -71 -18 -73 -30 -3 -15 8 -17 102 -17 128 0 351 -18 380
-31 15 -7 7 -8 -29 -4 -27 2 -141 8 -252 11 l-203 7 0 -25 c0 -28 26 -42 245
-129 66 -27 114 -48 107 -49 -7 0 -87 30 -178 66 -91 36 -167 64 -169 62 -2
-2 -7 -27 -11 -56 l-7 -52 45 0 c36 0 150 -12 329 -34 44 -6 224 -50 263 -65
52 -20 22 -20 -49 0 -98 28 -268 56 -415 69 -69 6 -137 13 -151 16 -22 4 -27
1 -31 -19 -4 -23 0 -25 101 -47 122 -27 473 -125 503 -141 45 -24 3 -18 -99
14 -59 20 -119 38 -133 41 -14 4 -59 16 -100 27 -90 24 -256 59 -278 59 -8 0
-12 -3 -9 -6 3 -4 2 -16 -4 -26 -6 -11 -7 -24 -2 -28 4 -5 71 -25 148 -45 229
-60 513 -158 705 -244 l44 -20 18 27 c10 15 18 32 18 38 0 6 -30 14 -71 18
-122 11 -181 57 -181 141 0 100 90 149 212 115 19 -5 68 -16 108 -23 l73 -14
24 48 c23 45 24 49 7 59 -15 10 -15 10 3 6 17 -5 25 4 46 53 l26 59 -29 -10
c-21 -7 -58 -6 -136 6 -59 8 -152 18 -207 22 -133 8 -172 19 -213 60 -33 33
-34 37 -30 89 8 98 72 137 190 116 35 -6 133 -18 218 -26 181 -18 211 -26 244
-66 l24 -29 21 63 c51 155 107 415 126 584 l7 61 -34 7 c-18 4 -44 14 -57 22
-18 11 -21 12 -15 2 6 -11 5 -12 -8 -2 -8 7 -18 10 -22 6 -4 -4 -11 -1 -16 7
-6 8 -10 10 -10 4 0 -7 -11 -9 -25 -6 -14 2 -25 9 -25 14 0 5 -4 6 -10 3 -5
-3 -10 -2 -10 3 0 5 -7 9 -15 9 -8 0 -15 -5 -15 -11 0 -6 -7 -1 -15 11 -9 13
-23 20 -35 18 -11 -2 -20 1 -20 7 0 7 -4 7 -13 0 -8 -7 -18 -7 -27 -2 -8 6
-25 10 -38 10 -13 0 -21 4 -18 9 4 5 -3 7 -14 4 -11 -3 -35 1 -52 10 -18 8
-57 18 -85 22 -29 4 -53 10 -53 13 0 4 -19 8 -41 9 -23 0 -46 7 -50 15 -5 7
-9 9 -9 4 0 -6 -7 -1 -15 10 -9 12 -14 14 -15 5 0 -9 -6 -11 -17 -6 -10 4 -25
8 -33 8 -8 0 -21 8 -28 19 -7 10 -19 18 -25 18 -7 0 -6 -4 3 -10 26 -16 6 -19
-30 -3 -19 9 -47 15 -62 14 -15 -1 -33 1 -40 6 -7 4 -17 8 -23 8 -5 0 -10 7
-10 15 0 18 -46 33 -59 20 -14 -14 -29 -12 -20 2 5 8 2 9 -10 5 -24 -9 -42 3
-25 15 9 6 -4 8 -39 4 -45 -4 -52 -2 -50 12 2 14 -5 17 -40 16 -33 -1 -45 3
-53 17 -5 11 -14 17 -18 14 -5 -2 -20 4 -34 15 -21 17 -30 18 -51 9 -14 -7
-22 -17 -19 -23 4 -6 -4 -2 -16 8 -22 20 -22 20 -16 0 6 -17 6 -17 -5 -1 -6
10 -23 17 -40 17 -16 0 -31 4 -34 9 -7 11 -56 21 -56 10 0 -4 -9 -7 -19 -6
-15 1 -17 5 -11 17 5 9 5 22 1 29 -6 9 -10 10 -12 2 -2 -6 -18 -13 -36 -15
-26 -4 -31 -1 -27 12 5 13 2 13 -10 -2 -15 -19 -16 -18 -17 15 -1 31 -2 28
-16 -21 -20 -74 -40 -120 -53 -120 -6 0 -27 -17 -47 -38 -33 -35 -37 -27 -5
11 13 15 13 17 -1 17 -8 0 -25 12 -36 26 -19 24 -21 36 -16 108 3 45 8 95 10
111 4 22 2 26 -5 15 -7 -11 -10 -7 -10 18 0 17 5 32 11 32 6 0 8 -7 4 -17 -4
-13 -3 -15 5 -7 14 14 21 84 9 84 -5 0 -9 -12 -9 -27 0 -14 -3 -24 -6 -20 -4
3 -3 30 0 60 6 42 11 54 23 53 17 -1 32 38 47 117 6 33 4 38 -15 45 -22 8 -22
11 -24 283 -1 151 -6 288 -10 304 -4 17 -7 41 -7 55 0 27 -23 142 -42 205 -6
22 -9 55 -5 73 4 22 -3 71 -23 150 -51 199 -57 239 -36 226 8 -5 9 -2 5 9 -3
10 -2 17 2 17 5 0 11 -5 13 -12 2 -6 9 -8 16 -4 8 5 0 20 -26 47 -20 23 -41
48 -46 57 -6 10 -22 31 -38 47 -27 29 -38 52 -18 40 6 -3 10 -2 10 3 0 5 -48
58 -107 118 -60 60 -120 125 -134 144 -37 49 -175 145 -227 158 l-43 10 -39
-82z"/>
<path d="M4093 5345 c14 -27 48 -98 76 -157 34 -72 66 -122 96 -152 25 -26 45
-51 45 -58 0 -6 3 -9 6 -5 3 3 27 -8 52 -24 25 -16 59 -29 75 -29 20 0 26 -4
21 -12 -5 -9 -2 -9 9 1 11 9 21 10 30 4 6 -6 53 -16 102 -22 50 -7 99 -17 110
-22 11 -4 29 -10 40 -11 11 -2 23 -7 27 -13 5 -6 8 -6 8 2 0 6 8 10 18 8 9 -2
53 -9 97 -16 44 -6 85 -16 91 -21 6 -4 19 -6 28 -2 9 3 24 0 33 -7 14 -12 16
-12 8 1 -8 13 -7 13 8 1 9 -7 17 -11 17 -8 0 4 17 0 38 -7 20 -7 43 -11 50 -9
6 3 12 1 12 -4 0 -4 17 -8 38 -8 20 -1 55 -4 77 -9 22 -4 52 -9 67 -11 15 -2
37 -9 49 -15 11 -7 23 -9 26 -7 8 8 -144 205 -172 223 -14 9 -42 18 -62 19
-114 10 -147 15 -152 22 -3 4 -15 8 -26 8 -11 0 -42 5 -70 13 -27 7 -79 17
-115 22 -67 9 -114 18 -140 25 -8 2 -37 7 -65 10 -27 4 -63 10 -80 15 -16 5
-56 12 -88 16 -31 3 -60 10 -63 15 -3 5 -10 7 -15 4 -5 -4 -9 -1 -9 5 0 6 -5
8 -10 5 -6 -3 -13 1 -16 9 -3 9 -10 13 -15 10 -5 -3 -9 -1 -9 5 0 6 -10 13
-22 17 -13 3 -36 22 -52 42 -16 21 -26 28 -22 17 6 -18 5 -19 -7 -3 -8 10 -18
14 -22 10 -5 -4 -5 -1 -1 6 5 8 -2 16 -18 22 -14 5 -26 12 -26 15 0 4 6 3 13
-1 6 -4 3 2 -8 13 -11 11 -23 19 -27 16 -4 -2 -5 3 -2 11 4 11 0 16 -11 16
-10 0 -29 12 -42 28 l-25 27 25 -50z"/>
<path d="M874 4945 c-32 -32 -67 -80 -84 -117 -41 -86 -42 -194 -4 -283 14
-33 39 -105 54 -160 16 -55 47 -152 70 -215 23 -63 77 -221 120 -350 44 -129
95 -280 114 -335 33 -97 49 -158 101 -390 13 -60 49 -202 79 -315 31 -113 58
-231 62 -262 6 -52 4 -59 -19 -82 -30 -30 -66 -33 -96 -8 -16 12 -24 35 -31
82 -10 68 -45 219 -99 423 -17 65 -44 182 -60 260 -16 78 -52 210 -81 292 -28
83 -77 229 -109 325 -94 281 -183 534 -192 544 -5 6 -9 -5 -9 -26 0 -20 4 -39
10 -43 6 -4 6 -15 0 -31 -14 -36 -12 -52 4 -32 11 15 12 11 10 -25 -1 -23 -6
-50 -9 -59 -5 -13 -2 -18 9 -18 9 0 16 -8 16 -17 0 -10 7 -27 15 -37 8 -11 15
-30 15 -42 0 -12 7 -39 16 -60 18 -42 15 -145 -3 -179 -9 -15 -13 -10 -27 32
-21 63 -56 132 -56 111 0 -9 7 -46 15 -82 8 -35 13 -71 10 -79 -3 -7 3 -37 15
-66 23 -59 19 -94 -13 -116 -28 -20 -77 -19 -106 1 -20 15 -22 22 -16 63 4 25
11 50 16 56 5 5 9 18 9 28 0 11 8 26 17 33 17 12 16 13 -4 9 -17 -3 -24 2 -29
20 -4 15 -11 22 -20 18 -10 -4 -12 0 -8 11 3 9 10 16 16 16 5 0 6 5 2 11 -4 8
-9 7 -15 -2 -13 -22 -22 -2 -23 50 -1 27 -4 47 -7 45 -4 -2 -7 9 -7 24 0 15
-3 43 -5 62 -13 89 -27 300 -31 453 -2 93 -6 171 -9 173 -5 5 -120 -182 -162
-265 -24 -48 -26 -61 -20 -110 4 -31 7 -63 6 -71 -4 -62 2 -120 14 -139 9 -15
13 -101 5 -96 -15 9 -40 -31 -35 -56 28 -137 28 -143 -17 -145 -36 -1 -61 7
-59 20 4 26 -2 32 -33 32 -25 0 -32 -4 -28 -15 3 -9 1 -12 -7 -7 -13 9 -11
-15 3 -25 5 -4 -1 -10 -13 -14 -11 -3 -21 -11 -21 -17 0 -6 -9 -8 -20 -5 -23
6 -27 -6 -59 -173 -36 -179 -51 -354 -51 -570 0 -484 95 -898 305 -1325 114
-234 277 -480 433 -654 l48 -54 55 18 c71 23 220 98 290 146 31 21 94 70 139
108 95 80 135 94 195 65 63 -30 85 -116 46 -180 -24 -39 -200 -155 -461 -305
l-74 -42 49 -44 c65 -58 243 -193 255 -193 9 0 135 149 190 226 47 65 98 91
150 75 51 -15 80 -53 80 -103 0 -55 -9 -68 -131 -199 -88 -94 -106 -119 -95
-128 10 -9 19 -3 42 26 15 21 64 74 107 118 92 93 117 135 110 185 -8 57 -33
105 -65 123 -41 23 -113 22 -153 -3 l-33 -21 3 23 c1 13 8 36 14 52 6 16 10
31 7 33 -6 6 -63 -24 -101 -52 -16 -12 -50 -34 -75 -49 l-45 -27 30 26 c17 14
62 49 101 78 69 50 85 72 98 129 4 15 19 50 35 76 25 42 28 55 21 90 -4 23 -5
52 -3 65 3 15 -12 56 -41 113 -29 57 -55 129 -72 199 -23 95 -26 121 -20 198
10 130 64 305 103 335 41 30 103 2 103 -47 0 -13 -14 -64 -31 -115 -27 -80
-31 -105 -32 -206 -1 -120 19 -228 52 -280 50 -80 147 -210 157 -210 6 0 39
18 74 41 134 86 322 172 521 236 101 32 160 65 146 80 -4 3 0 17 9 31 l16 25
-57 -5 c-51 -4 -55 -3 -34 8 l24 13 -25 1 c-23 1 -23 2 -5 9 11 5 34 6 51 4
19 -3 34 0 39 8 6 9 3 11 -8 6 -10 -3 -17 -2 -17 4 0 5 -6 9 -12 8 -44 -5 -45
23 -3 66 26 25 27 30 12 33 -22 5 -12 22 14 22 13 0 19 7 19 21 0 16 -3 19
-12 12 -17 -14 -110 -25 -124 -15 -16 11 -34 48 -34 71 0 16 6 21 24 21 14 0
36 4 50 9 17 7 26 7 29 -2 3 -9 8 -9 20 2 9 7 28 11 42 9 19 -4 25 -1 25 12 0
10 6 20 14 23 8 3 13 -1 12 -11 0 -10 6 -17 15 -16 11 1 15 -5 12 -17 -3 -10
-2 -27 2 -36 6 -16 8 -16 16 5 5 12 17 25 26 29 10 3 26 14 36 25 20 20 63 26
51 6 -5 -8 -2 -9 12 -4 10 5 31 13 47 18 15 6 27 17 27 28 0 9 13 34 30 55 33
42 44 119 25 170 -4 11 2 7 14 -10 22 -31 29 -28 11 6 -6 10 -13 40 -15 66
-17 185 -20 201 -48 227 -15 14 -27 22 -27 18 0 -18 -49 78 -59 116 -7 23 -16
42 -21 42 -13 0 -32 77 -25 101 5 14 0 27 -12 39 -10 10 -31 34 -47 54 -16 19
-33 33 -39 29 -6 -3 -7 -1 -3 6 5 7 -4 27 -20 48 -15 20 -28 47 -30 60 l-2 25
24 -23 c13 -12 24 -30 24 -39 0 -9 7 -25 15 -36 14 -19 14 -18 15 4 0 12 -4
22 -9 22 -5 0 -11 8 -14 18 -4 9 -13 27 -22 39 -15 19 -15 21 -1 19 9 -1 22
-8 28 -14 7 -7 18 -12 24 -12 7 0 14 -8 17 -17 3 -15 6 -14 15 7 9 22 11 23
12 5 1 -11 4 -14 7 -7 2 6 9 9 15 6 6 -4 8 2 4 17 -3 13 3 4 14 -20 11 -24 23
-41 26 -38 3 3 1 14 -5 25 -15 28 -15 53 0 32 7 -10 9 -11 7 -2 -2 8 -7 13
-12 12 -14 -3 -26 23 -26 55 0 23 3 27 10 15 9 -13 10 -13 10 0 0 11 4 9 12
-5 12 -19 12 -19 18 4 8 35 38 37 33 2 -2 -19 -1 -21 5 -8 7 17 10 16 32 -8
13 -14 27 -25 31 -25 14 0 21 41 8 56 -6 8 -9 17 -6 21 4 3 9 -2 13 -11 5 -13
9 -14 20 -5 11 9 14 7 14 -12 l1 -24 18 22 c13 15 21 19 29 11 12 -12 10 35
-3 65 -4 9 -3 17 3 17 5 0 12 -7 16 -15 3 -8 10 -14 16 -13 5 2 21 -15 35 -37
20 -30 24 -34 20 -15 l-6 25 20 -25 c11 -14 21 -20 21 -13 0 7 9 10 20 8 32
-6 48 4 43 28 l-4 22 17 -22 c19 -27 34 -30 34 -7 0 8 5 12 10 9 7 -4 9 3 5
22 -5 21 -4 24 4 13 6 -8 11 -23 11 -32 0 -10 5 -18 10 -18 10 0 14 13 11 40
-1 8 8 3 20 -13 35 -45 47 -22 44 81 l-4 87 14 -115 c15 -133 12 -120 26 -120
6 0 8 12 5 33 -6 31 -6 31 6 7 11 -21 16 8 34 215 12 132 20 242 18 244 -2 2
-6 -5 -9 -15 -4 -10 -11 -27 -16 -36 -5 -10 -9 -23 -9 -30 -1 -78 -197 -298
-266 -298 -30 0 -74 41 -74 69 0 20 13 34 99 108 77 67 130 179 132 281 1 47
3 52 9 27 4 -16 8 -27 9 -22 37 235 46 352 36 453 -11 100 -22 63 -24 -75 -1
-89 -2 -94 -28 -115 -15 -11 -29 -20 -31 -18 -1 2 -24 -8 -50 -22 -69 -37 -84
-37 -93 -1 -4 17 -12 107 -19 200 -6 94 -17 226 -25 295 -8 69 -17 156 -20
193 l-7 68 -23 -25 c-33 -36 -90 -57 -135 -50 l-37 6 -11 -73 c-7 -41 -12
-121 -12 -179 0 -58 0 -136 0 -174 -2 -150 16 -206 59 -179 12 7 20 7 28 -2 7
-7 9 -16 6 -19 -4 -3 4 -6 18 -6 31 0 69 -45 69 -83 0 -17 -17 -59 -37 -95
-21 -35 -43 -73 -49 -84 -18 -30 -75 -87 -112 -110 -26 -16 -30 -23 -21 -34 6
-8 16 -14 22 -14 5 0 25 -11 43 -25 l33 -26 26 41 c14 22 27 40 29 40 2 0 3
-26 2 -58 -1 -48 4 -66 27 -101 16 -24 26 -45 23 -48 -3 -3 -23 6 -44 21 -21
14 -41 26 -44 26 -3 0 -23 -18 -45 -39 -49 -49 -132 -76 -205 -67 -126 17
-238 90 -238 155 l0 31 -65 0 c-50 0 -66 -4 -74 -17 -9 -16 -10 -16 -11 -2 0
13 -11 18 -43 20 l-44 4 66 -75 c36 -42 69 -72 72 -68 3 5 14 -11 25 -34 10
-24 35 -59 56 -79 46 -45 56 -78 32 -113 -16 -26 -16 -28 13 -69 26 -36 143
-244 143 -253 0 -2 -4 -4 -8 -4 -5 0 -16 17 -26 38 -10 20 -47 88 -83 150 -48
83 -70 112 -84 112 -18 0 -18 -3 9 -42 51 -75 113 -180 109 -184 -3 -3 -19 19
-37 48 -92 148 -115 180 -139 194 -14 9 -42 37 -61 62 -19 26 -70 83 -112 127
-42 44 -87 94 -99 110 -13 17 -27 32 -31 35 -4 3 -25 33 -46 66 -35 53 -43 61
-88 72 -99 25 -224 183 -339 427 -15 33 -45 96 -66 140 -20 44 -69 149 -108
234 -82 179 -212 382 -311 484 -87 88 -108 90 -186 12z m1673 -2536 c-7 -27
16 -41 60 -37 l38 4 -35 10 c-19 6 -36 18 -38 27 -7 35 27 17 121 -64 32 -27
37 -53 24 -128 -7 -39 -6 -43 8 -31 8 7 15 20 16 29 0 9 3 11 5 4 8 -19 -16
-55 -32 -49 -7 3 -18 -3 -24 -13 -14 -27 -81 -51 -163 -57 -63 -5 -79 -3 -129
20 -67 30 -107 78 -115 137 -5 35 -4 41 9 36 9 -3 21 0 27 6 8 8 11 6 11 -9 0
-36 57 -112 99 -134 77 -39 193 -15 225 48 24 46 36 103 26 121 -24 42 -25 42
-60 25 -30 -15 -35 -15 -59 -1 -45 26 -67 96 -25 80 9 -3 14 -13 11 -24z"/>
<path d="M4635 4293 c-54 -61 -62 -78 -54 -108 6 -21 4 -40 -7 -64 -9 -19 -12
-36 -7 -40 5 -3 12 -14 16 -23 5 -14 13 -16 37 -12 16 4 36 2 43 -4 8 -7 18
-6 32 5 14 11 16 17 7 20 -6 3 -9 10 -6 16 5 8 2 8 -7 0 -7 -7 -24 -13 -38
-12 -15 0 -20 3 -13 6 6 2 12 9 12 14 0 5 -6 8 -12 7 -12 -3 -13 19 -3 50 5
15 54 15 115 1 25 -6 142 -30 260 -55 228 -47 270 -59 270 -79 0 -14 -34 -47
-46 -44 -24 4 -55 -2 -50 -10 3 -5 -5 -11 -18 -13 -19 -4 -23 -1 -18 11 3 9 1
13 -3 8 -5 -4 -19 3 -33 15 l-24 23 7 -30 c10 -42 18 -47 64 -47 23 0 41 -3
41 -9 0 -5 12 -8 26 -7 18 2 38 17 63 48 48 60 51 63 84 84 35 24 44 59 23 91
-21 32 -46 32 -77 -1 -29 -31 -14 -33 -429 55 -79 17 -147 31 -151 31 -4 0
-18 17 -30 38 -35 56 -49 63 -74 35z"/>
<path d="M4296 3582 c-9 -15 -22 -124 -18 -145 2 -11 9 -16 18 -13 9 3 14 -1
15 -12 0 -10 3 -12 6 -5 3 10 12 10 38 -1 18 -8 37 -11 41 -8 4 4 4 -1 1 -10
-9 -26 2 -22 13 5 7 17 9 18 9 5 1 -10 4 -18 9 -19 56 -3 107 -14 152 -32 29
-11 67 -20 84 -19 40 3 103 -18 85 -29 -8 -5 1 -8 26 -8 35 0 68 -5 85 -11 3
-1 8 -2 13 -1 12 2 8 -10 -11 -27 -10 -10 -12 -13 -5 -8 7 5 13 5 13 1 0 -4 7
-2 15 5 8 7 15 9 15 5 0 -4 7 -2 15 5 12 10 16 8 24 -11 9 -21 10 -22 11 -4 0
17 2 17 10 5 8 -13 14 -8 12 11 -1 3 6 6 14 6 8 0 14 -7 14 -15 0 -12 3 -12
15 -2 13 11 18 11 28 0 10 -10 9 -11 -3 -5 -8 5 -11 4 -7 0 4 -5 13 -10 20
-11 90 -17 201 -45 206 -51 3 -4 15 -8 26 -7 11 0 32 -3 48 -7 15 -4 25 -4 22
1 -3 4 4 6 15 3 11 -3 20 -10 20 -15 0 -5 4 -7 9 -4 5 3 12 -1 15 -10 3 -9 11
-12 18 -8 18 12 66 10 61 -2 -2 -6 3 -11 12 -11 10 0 14 6 10 16 -3 11 -1 11
9 -3 9 -10 22 -16 30 -13 9 4 22 -1 31 -9 11 -12 15 -12 15 -2 0 10 3 9 10 -2
5 -8 10 -10 10 -5 0 6 3 6 8 0 12 -17 62 -46 62 -36 0 9 33 8 84 -2 11 -2 22
-9 24 -16 3 -9 8 -9 20 1 12 10 14 10 8 1 -4 -7 -3 -20 2 -29 8 -15 10 -15 15
0 4 9 11 16 17 16 6 0 8 -6 4 -12 -5 -8 0 -7 11 2 11 9 16 10 11 3 -5 -9 0
-13 14 -13 12 0 31 -5 42 -11 16 -8 19 -8 13 1 -4 7 4 4 19 -5 l26 -17 0 95 0
96 -42 11 c-24 6 -51 13 -60 16 -9 3 -26 7 -38 9 -12 2 -138 32 -279 66 -141
34 -321 77 -401 95 -80 19 -228 55 -330 79 -102 25 -259 63 -350 84 -91 22
-172 43 -181 46 -10 4 -20 2 -23 -3z"/>
<path d="M3270 1994 c-34 -18 -44 -51 -25 -81 14 -21 14 -24 -1 -30 -9 -3 -24
-2 -33 4 -20 13 -81 27 -81 19 0 -11 72 -86 84 -87 36 -2 221 -145 232 -179
11 -35 14 -81 4 -75 -4 2 -7 -15 -7 -38 0 -23 2 -37 4 -30 2 7 11 9 19 6 7 -3
12 -9 9 -13 -3 -4 2 -11 11 -14 8 -3 12 -2 9 3 -8 14 47 2 65 -13 16 -13 66
-36 78 -36 4 0 -2 7 -12 15 -13 10 -15 15 -6 15 9 0 7 5 -6 15 -10 8 -31 15
-46 15 -23 0 -28 5 -28 24 0 14 -5 28 -11 32 -8 4 -9 -1 -5 -17 l6 -24 -11 23
c-7 12 -16 22 -21 22 -13 0 -9 22 8 41 14 16 14 20 -2 51 -22 42 -20 102 5
144 17 28 18 39 9 76 -6 23 -21 52 -34 63 -13 11 -24 31 -26 45 -2 16 -9 24
-18 21 -26 -6 -71 -3 -83 7 -18 13 -59 11 -87 -4z"/>
<path d="M4564 1572 c-12 -29 -13 -41 -4 -55 10 -16 9 -18 -9 -12 -12 3 -21 4
-21 2 0 -3 48 -24 108 -47 145 -58 398 -182 559 -274 73 -42 134 -76 137 -76
5 0 106 133 131 172 l17 28 -48 21 c-184 80 -427 166 -604 215 -97 27 -115 29
-80 9 42 -24 13 -17 -40 10 -26 13 -67 29 -90 34 -40 9 -41 9 -56 -27z"/>
<path d="M2390 1500 c-146 -47 -556 -222 -583 -250 -9 -8 30 -60 45 -60 5 0
33 11 61 24 29 13 135 61 236 106 118 54 193 94 209 112 14 15 32 30 41 33 12
4 61 58 49 54 -2 0 -28 -9 -58 -19z"/>
<path d="M4510 1455 c-6 -16 -13 -31 -15 -35 -3 -5 61 -50 143 -101 81 -51
208 -139 282 -196 139 -105 262 -212 223 -193 -12 5 -25 15 -28 20 -3 5 -16
15 -28 21 -12 6 -3 -5 21 -26 24 -21 40 -40 37 -43 -7 -7 -95 79 -90 88 3 4
-5 16 -18 26 l-22 19 19 -22 c11 -13 15 -23 9 -23 -16 0 -54 46 -46 55 5 4 2
5 -5 1 -6 -4 -19 0 -28 8 -57 58 -336 256 -358 256 -6 0 6 -16 28 -35 21 -19
34 -35 29 -35 -5 0 -27 19 -48 41 -43 45 -121 99 -142 99 -7 0 -13 -6 -13 -14
0 -8 -6 -17 -12 -19 -8 -3 15 -31 57 -68 177 -161 412 -396 468 -468 17 -23
34 -41 38 -41 11 0 163 152 244 244 l70 79 -24 16 c-39 26 -119 71 -321 178
-76 41 -393 179 -432 188 -24 6 -29 3 -38 -20z"/>
<path d="M2180 1306 c-237 -102 -310 -137 -310 -147 0 -3 11 -18 25 -32 27
-26 71 -27 61 -1 -4 10 6 14 37 15 23 1 45 1 49 0 4 0 24 -3 45 -6 35 -6 46
-1 160 80 67 47 125 91 129 97 4 7 3 8 -4 4 -21 -13 -13 28 8 47 16 13 28 39
18 36 -2 0 -100 -42 -218 -93z"/>
<path d="M4420 1210 c0 -5 19 -16 43 -24 40 -15 40 -16 7 -11 l-34 5 26 -27
c30 -33 141 -183 134 -183 -2 0 -27 28 -54 63 -27 34 -66 80 -87 102 -31 34
-33 35 -16 8 12 -17 21 -37 21 -43 0 -7 44 -60 98 -119 97 -105 211 -240 266
-314 l28 -38 56 47 c32 26 61 51 66 55 21 18 -249 302 -399 421 -52 41 -81 57
-112 61 -24 3 -43 1 -43 -3z"/>
<path d="M4519 998 c7 -9 11 -25 9 -35 -3 -13 6 -22 27 -30 25 -10 26 -12 8
-12 -36 -1 -36 -19 -1 -41 32 -20 32 -21 6 -14 -42 10 -34 -12 17 -48 56 -39
60 -58 5 -23 -22 14 -42 25 -44 25 -2 0 1 -13 7 -30 6 -16 16 -30 22 -30 5 0
3 -5 -5 -10 -30 -19 5 -41 134 -85 72 -25 132 -45 134 -45 5 0 -49 74 -117
157 -56 69 -236 265 -202 221z"/>
</g>
</svg>
